{"title":"Power Rangers Super Megaforce: The Legendary Battle (Extended Ed","uid":12298812,"size":2353779689,"categoryP":"video","categoryS":"hd___tv_shows","magnet":"?xt=urn:btih:768a45f73972bc8e524a43e634d693feafb03382&amp;dn=Power+Rangers+Super+Megaforce%3A+The+Legendary+Battle+%28Extended+Ed&amp;tr=udp%3A%2F%2Ftracker.openbittorrent.com%3A80&amp;tr=udp%3A%2F%2Fopen.demonii.com%3A1337&amp;tr=udp%3A%2F%2Ftracker.coppersurfer.tk%3A6969&amp;tr=udp%3A%2F%2Fexodus.desync.com%3A6969","seeders":1,"leechers":0,"uploader":"jmanwf","files":2,"time":1440669800,"description":"Troy, Noah, Emma, Gia, and Jake have defended our planet countless times as the newest generation of Power Rangers. But when evil Emperor Mavro launches a final strike against Earth, they are called back into action! To defeat the greatest threat the galaxy has ever seen, the Megaforce will reunite with their alien friend Orion, and fight alongside over a hundred Rangers from the past - including the original Mighty Morphin Green Ranger - in the most legendary battle in Power Ranger history!\n\n\nVideo\nID : 3\nFormat : AVC\nFormat/Info : Advanced Video Codec\nFormat profile : High@L4\nFormat settings, CABAC : Yes\nFormat settings, ReFrames : 4 frames\nCodec ID : avc1\nCodec ID/Info : Advanced Video Coding\nDuration : 55mn 1s\nDuration_LastFrame : -10ms\nBit rate : 5 186 Kbps\nWidth : 1 908 pixels\nHeight : 1 068 pixels\nDisplay aspect ratio : 16:9\nFrame rate mode : Constant\nFrame rate : 23.976 fps\nColor space : YUV\nChroma subsampling : 4:2:0\nBit depth : 8 bits\nScan type : Progressive\nBits/(Pixel*Frame) : 0.106\nStream size : 1.99 GiB (91%)\nLanguage : English\nEncoded date : UTC 2015-08-13 09:41:00\nTagged date : UTC 2015-08-13 09:41:40\nColor range : Limited\nColor primaries : BT.709\nTransfer characteristics : BT.709\nMatrix coefficients : BT.709\n\nAudio #1\nID : 1\nFormat : AAC\nFormat/Info : Advanced Audio Codec\nFormat profile : LC\nCodec ID : 40\nDuration : 55mn 1s\nDuration_LastFrame : -16ms\nBit rate mode : Variable\nBit rate : 128 Kbps\nMaximum bit rate : 194 Kbps\nChannel(s) : 2 channels\nChannel positions : Front: L R\nSampling rate : 48.0 KHz\nCompression mode : Lossy\nStream size : 50.4 MiB (2%)\nLanguage : English\nEncoded date : UTC 2015-08-13 09:36:59\nTagged date : UTC 2015-08-13 09:39:03\n\nAudio #2\nID : 2\nFormat : AC-3\nFormat/Info : Audio Coding 3\nMode extension : CM (complete main)\nFormat settings, Endianness : Big\nCodec ID : ac-3\nDuration : 55mn 2s\nDuration_LastFrame : -16ms\nBit rate mode : Constant\nBit rate : 384 Kbps\nChannel(s) : 6 channels\nChannel positions : Front: L C R, Side: L R, LFE\nSampling rate : 48.0 KHz\nBit depth : 16 bits\nCompression mode : Lossy\nStream size : 151 MiB (7%)\nLanguage : English\nEncoded date : UTC 2015-08-13 09:39:04\nTagged date : UTC 2015-08-13 09:40:59\n\nText\nID : 4-CC1\nFormat : EIA-608\nMuxing mode : Final Cut\nCodec ID : c608\nDuration : 54mn 25s\nBit rate mode : Constant\nStream size : 0.00 Byte (0%)\nLanguage : English\nEncoded date : UTC 2015-08-13 09:41:42\nTagged date : UTC 2015-08-13 09:41:45","torrent":{"xt":"urn:btih:768a45f73972bc8e524a43e634d693feafb03382","amp;dn":"Power+Rangers+Super+Megaforce%3A+The+Legendary+Battle+%28Extended+Ed","amp;tr":["udp%3A%2F%2Ftracker.openbittorrent.com%3A80","udp%3A%2F%2Fopen.demonii.com%3A1337","udp%3A%2F%2Ftracker.coppersurfer.tk%3A6969","udp%3A%2F%2Fexodus.desync.com%3A6969"],"infoHash":"768a45f73972bc8e524a43e634d693feafb03382","infoHashBuffer":{"type":"Buffer","data":[118,138,69,247,57,114,188,142,82,74,67,230,52,214,147,254,175,176,51,130]},"announce":[],"urlList":[]}}